<?xml version="1.0" encoding="UTF-8" standalone="no"?>
<svg width="50px" height="50px" viewBox="0 0 50 50" version="1.1" xmlns="http://www.w3.org/2000/svg" xmlns:xlink="http://www.w3.org/1999/xlink" xmlns:sketch="http://www.bohemiancoding.com/sketch/ns">
    <!-- Generator: Sketch 3.2.1 (9971) - http://www.bohemiancoding.com/sketch -->
    <title>backpack</title>
    <desc>Created with Sketch.</desc>
    <defs></defs>
    <g id="Page-1" stroke="none" stroke-width="1" fill="none" fill-rule="evenodd" sketch:type="MSPage">
        <g id="icons" sketch:type="MSLayerGroup" transform="translate(-78.000000, -68.000000)">
            <g id="backpack" transform="translate(78.000000, 68.000000)" sketch:type="MSShapeGroup">
                <path d="M3.125,26.5625 L46.875,26.5625 C48.6,26.5625 50,27.9625 50,29.6875 L50,43.75 C50,45.4765625 48.6,46.875 46.875,46.875 L3.125,46.875 C1.4,46.875 0,45.4765625 0,43.75 L0,29.6875 C0,27.9625 1.4,26.5625 3.125,26.5625 L3.125,26.5625 Z" id="Shape" fill="#BF392C"></path>
                <path d="M25,3.125 C27.0390625,3.125 28.753125,4.434375 29.4,6.25 L32.8125,6.25 C32.8125,2.7984375 29.315625,0 25,0 C20.6859375,0 17.1875,2.7984375 17.1875,6.25 L20.6,6.25 C21.246875,4.434375 22.9625,3.125 25,3.125 L25,3.125 Z" id="Shape" fill="#324D5B"></path>
                <path d="M14.0625,6.25 L35.9375,6.25 C41.1125,6.25 45.3125,10.4484375 45.3125,15.625 L45.3125,46.875 C45.3125,48.6015625 43.9125,50 42.1875,50 L7.8125,50 C6.0875,50 4.6875,48.6015625 4.6875,46.875 L4.6875,15.625 C4.6875,10.4484375 8.884375,6.25 14.0625,6.25 L14.0625,6.25 Z" id="Shape" fill="#E2574C"></path>
                <path d="M9.375,6.25 L40.625,6.25 C44.0765625,6.25 46.875,9.0484375 46.875,12.5 L46.875,18.75 C46.875,22.2015625 44.0765625,25.0015625 40.625,25.0015625 L9.375,25.0015625 C5.9234375,25.0015625 3.125,22.2015625 3.125,18.75 L3.125,12.5 C3.125,9.0484375 5.9234375,6.25 9.375,6.25 L9.375,6.25 Z" id="Shape" fill="#BF392C"></path>
                <path d="M12.5,39.0625 C0.15625,0 13.7046875,42.1875 14.8921875,42.1875 C16.046875,42.1875 17.1875,39.0625 17.1875,39.0625 L17.1875,6.25 L12.5,6.25 L12.5,39.0625 L12.5,39.0625 Z M32.8125,6.25 L32.8125,39.0625 C0.15625,0 34.0171875,42.1875 35.2046875,42.1875 C36.359375,42.1875 37.5,39.0625 37.5,39.0625 L37.5,6.25 L32.8125,6.25 L32.8125,6.25 Z" id="Shape" fill="#EFC75E"></path>
                <path d="M10.9375,35.9375 L18.75,35.9375 L18.75,31.25 L10.9375,31.25 L10.9375,35.9375 L10.9375,35.9375 Z M31.25,31.25 L31.25,35.9375 L39.0625,35.9375 L39.0625,31.25 L31.25,31.25 L31.25,31.25 Z" id="Shape" fill="#E4E7E7"></path>
            </g>
        </g>
    </g>
</svg>