<?xml version="1.0" encoding="UTF-8" standalone="no"?>
<svg width="54px" height="54px" viewBox="0 0 54 54" version="1.1" xmlns="http://www.w3.org/2000/svg" xmlns:xlink="http://www.w3.org/1999/xlink" xmlns:sketch="http://www.bohemiancoding.com/sketch/ns">
    <!-- Generator: Sketch 3.2.1 (9971) - http://www.bohemiancoding.com/sketch -->
    <title>bookmark</title>
    <desc>Created with Sketch.</desc>
    <defs></defs>
    <g id="Page-1" stroke="none" stroke-width="1" fill="none" fill-rule="evenodd" sketch:type="MSPage">
        <g id="icons" sketch:type="MSLayerGroup">
            <g id="bookmark" sketch:type="MSShapeGroup">
                <path d="M6.69166667,0.005 L46.6916667,0.005 C50.3733333,0.005 53.3583333,2.99 53.3583333,6.67166667 L53.3583333,46.6716667 C53.3583333,50.3533333 50.3733333,53.3383333 46.6916667,53.3383333 L6.69166667,53.3383333 C3.01,53.3383333 0.025,50.3533333 0.025,46.6716667 L0.025,6.67166667 C0.025,2.99 3.01,0.005 6.69166667,0.005 L6.69166667,0.005 Z" id="Shape" fill="#EFF1F1"></path>
                <path d="M6.69166667,5.005 L46.6916667,5.005 C50.3733333,5.005 53.3583333,7.99 53.3583333,11.6716667 L53.3583333,46.6716667 C53.3583333,50.3533333 50.3733333,53.3383333 46.6916667,53.3383333 L6.69166667,53.3383333 C3.01,53.3383333 0.025,50.3533333 0.025,46.6716667 L0.025,11.6716667 C0.025,7.99 3.01,5.005 6.69166667,5.005 L6.69166667,5.005 Z" id="Shape" fill="#EFF1F1"></path>
                <path d="M6.69166667,10.005 L46.6916667,10.005 C50.3733333,10.005 53.3583333,12.99 53.3583333,16.6716667 L53.3583333,46.6716667 C53.3583333,50.3533333 50.3733333,53.3383333 46.6916667,53.3383333 L6.69166667,53.3383333 C3.01,53.3383333 0.025,50.3533333 0.025,46.6716667 L0.025,16.6716667 C0.025,12.99 3.01,10.005 6.69166667,10.005 L6.69166667,10.005 Z" id="Shape" fill="#EFF1F1"></path>
                <path d="M46.6916667,0.005 L6.69166667,0.005 C3.01,0.005 0.025,2.99 0.025,6.67166667 L0.025,8.33833333 C0.025,4.65666667 3.01,1.67166667 6.69166667,1.67166667 L46.6916667,1.67166667 C50.3733333,1.67166667 53.3583333,4.65666667 53.3583333,8.33833333 L53.3583333,6.67166667 C53.3583333,2.99 50.3733333,0.005 46.6916667,0.005 L46.6916667,0.005 Z" id="Shape" fill="#D7D8D8"></path>
                <path d="M46.6916667,5.005 L6.69166667,5.005 C3.01,5.005 0.025,7.99 0.025,11.6716667 L0.025,13.3383333 C0.025,9.65666667 3.01,6.67166667 6.69166667,6.67166667 L46.6916667,6.67166667 C50.3733333,6.67166667 53.3583333,9.65666667 53.3583333,13.3383333 L53.3583333,11.6716667 C53.3583333,7.99 50.3733333,5.005 46.6916667,5.005 L46.6916667,5.005 Z" id="Shape" fill="#D7D8D8"></path>
                <path d="M46.6916667,10.005 L6.69166667,10.005 C3.01,10.005 0.025,12.99 0.025,16.6716667 L0.025,18.3383333 C0.025,14.6566667 3.01,11.6716667 6.69166667,11.6716667 L46.6916667,11.6716667 C50.3733333,11.6716667 53.3583333,14.6566667 53.3583333,18.3383333 L53.3583333,16.6716667 C53.3583333,12.99 50.3733333,10.005 46.6916667,10.005 L46.6916667,10.005 Z" id="Shape" fill="#D7D8D8"></path>
                <path d="M13.3583333,5.005 L40.025,5.005 L40.025,45.0066667 L26.6966667,36.6716667 L13.3583333,45.0066667 L13.3583333,5.005 L13.3583333,5.005 Z" id="Shape" fill="#E2574C"></path>
                <rect id="Rectangle-path" fill="#B5463D" x="13.3583333" y="5.005" width="26.6666667" height="6.66666667"></rect>
            </g>
        </g>
    </g>
</svg>