<?xml version="1.0" encoding="UTF-8" standalone="no"?>
<svg width="50px" height="47px" viewBox="0 0 50 47" version="1.1" xmlns="http://www.w3.org/2000/svg" xmlns:xlink="http://www.w3.org/1999/xlink" xmlns:sketch="http://www.bohemiancoding.com/sketch/ns">
    <!-- Generator: Sketch 3.2.1 (9971) - http://www.bohemiancoding.com/sketch -->
    <title>hamburger</title>
    <desc>Created with Sketch.</desc>
    <defs></defs>
    <g id="Page-1" stroke="none" stroke-width="1" fill="none" fill-rule="evenodd" sketch:type="MSPage">
        <g id="icons" sketch:type="MSLayerGroup" transform="translate(0.000000, -1.000000)">
            <g id="hamburger" transform="translate(0.000000, 1.000000)" sketch:type="MSShapeGroup">
                <path d="M28.125,0 L21.875,0 C13.2453125,0 1.5625,7.01553333 1.5625,15.6666667 L1.5625,17.2333333 C1.5625,18.0997 2.2609375,18.8 3.125,18.8 L46.875,18.8 C47.7390625,18.8 48.4375,18.0997 48.4375,17.2333333 L48.4375,15.6666667 C48.4375,7.01553333 36.7546875,0 28.125,0 L28.125,0 Z M1.5625,43.8666667 C1.5625,45.5978333 2.9625,47 4.6875,47 L45.3125,47 C47.0375,47 48.4375,45.5978333 48.4375,43.8666667 L48.4375,40.7333333 L1.5625,40.7333333 L1.5625,43.8666667 L1.5625,43.8666667 Z" id="Shape" fill="#DDAF6D"></path>
                <path d="M3.125,34.4666667 L46.875,34.4666667 C48.6,34.4666667 50,35.8704 50,37.6 C50,39.3311667 48.6,40.7333333 46.875,40.7333333 L3.125,40.7333333 C1.4,40.7333333 0,39.3311667 0,37.6 C0,35.8704 1.4,34.4666667 3.125,34.4666667 L3.125,34.4666667 Z" id="Shape" fill="#BB6F39"></path>
                <path d="M3.125,28.2 L46.875,28.2 L46.875,34.4666667 L43.75,34.4666667 L39.0625,39.1666667 L34.38125,34.4666667 L3.125,34.4666667 L3.125,28.2 L3.125,28.2 Z" id="Shape" fill="#EFC75E"></path>
                <path d="M46.875,23.5799 L46.875,23.5 L3.125,23.5 L3.125,23.5799 C1.3421875,23.9418 0,25.521 0,27.4166667 C0,29.5802333 1.7484375,31.3333333 3.90625,31.3333333 C5.7953125,31.3333333 7.371875,29.9907 7.7328125,28.2 L14.0625,28.2 C14.0625,29.9296 15.8109375,31.3333333 17.96875,31.3333333 C20.1265625,31.3333333 21.875,29.9296 21.875,28.2 L28.125,28.2 C28.125,29.9296 29.8734375,31.3333333 32.03125,31.3333333 C34.1890625,31.3333333 35.9375,29.9296 35.9375,28.2 L42.2671875,28.2 C42.628125,29.9907 44.203125,31.3333333 46.09375,31.3333333 C48.2515625,31.3333333 50,29.5802333 50,27.4166667 C50,25.521 48.6609375,23.9418 46.875,23.5799 L46.875,23.5799 Z" id="Shape" fill="#3DB39E"></path>
                <path d="M3.125,18.8 L46.875,18.8 L46.875,23.5 L3.125,23.5 L3.125,18.8 L3.125,18.8 Z" id="Shape" fill="#BF392C"></path>
                <g id="Group" transform="translate(1.562500, 0.000000)" fill="#C69D63">
                    <path d="M1.5625,18.8 L4.6875,18.8 C3.8234375,18.8 3.125,18.0997 3.125,17.2333333 L3.125,15.6666667 C3.125,7.01553333 14.8078125,0 23.4375,0 L20.3125,0 C11.6828125,0 0,7.01553333 0,15.6666667 L0,17.2333333 C0,18.0997 0.6984375,18.8 1.5625,18.8 L1.5625,18.8 Z M3.125,43.8666667 L3.125,40.7333333 L0,40.7333333 L0,43.8666667 C0,45.5978333 1.4,47 3.125,47 L6.25,47 C4.525,47 3.125,45.5978333 3.125,43.8666667 L3.125,43.8666667 Z" id="Shape"></path>
                </g>
                <path d="M3.125,37.6 C3.125,35.8704 4.525,34.4666667 6.25,34.4666667 L3.125,34.4666667 C1.4,34.4666667 0,35.8704 0,37.6 C0,39.3311667 1.4,40.7333333 3.125,40.7333333 L6.25,40.7333333 C4.525,40.7333333 3.125,39.3311667 3.125,37.6 L3.125,37.6 Z" id="Shape" fill="#A86433"></path>
                <g id="Group" transform="translate(0.000000, 23.500000)" fill="#37A18E">
                    <path d="M3.125,3.91666667 C3.125,2.021 4.4671875,0.4418 6.25,0.0799 L6.25,0 L3.125,0 L3.125,0.0799 C1.3421875,0.4418 0,2.021 0,3.91666667 C0,6.08023333 1.7484375,7.83333333 3.90625,7.83333333 C4.459375,7.83333333 4.98125,7.70643333 5.459375,7.49806667 C4.0859375,6.8902 3.125,5.51623333 3.125,3.91666667 L3.125,3.91666667 Z M17.1875,4.7 L14.0625,4.7 C14.0625,6.4296 15.8109375,7.83333333 17.96875,7.83333333 C18.525,7.83333333 19.0515625,7.7362 19.53125,7.56856667 C18.153125,7.0829 17.1875,5.98466667 17.1875,4.7 L17.1875,4.7 Z M31.25,4.7 L28.125,4.7 C28.125,6.4296 29.8734375,7.83333333 32.03125,7.83333333 C32.5859375,7.83333333 33.1140625,7.7362 33.59375,7.56856667 C32.215625,7.0829 31.25,5.98466667 31.25,4.7 L31.25,4.7 Z M45.3921875,4.7 L42.2671875,4.7 C42.628125,6.4907 44.203125,7.83333333 46.09375,7.83333333 C46.6515625,7.83333333 47.1828125,7.71113333 47.665625,7.49806667 C46.515625,6.99516667 45.6484375,5.9643 45.3921875,4.7 L45.3921875,4.7 Z" id="Shape"></path>
                </g>
            </g>
        </g>
    </g>
</svg>