<?xml version="1.0" encoding="UTF-8" standalone="no"?>
<svg width="49px" height="49px" viewBox="0 0 49 49" version="1.1" xmlns="http://www.w3.org/2000/svg" xmlns:xlink="http://www.w3.org/1999/xlink" xmlns:sketch="http://www.bohemiancoding.com/sketch/ns">
    <!-- Generator: Sketch 3.2.1 (9971) - http://www.bohemiancoding.com/sketch -->
    <title>map2</title>
    <desc>Created with Sketch.</desc>
    <defs></defs>
    <g id="Page-1" stroke="none" stroke-width="1" fill="none" fill-rule="evenodd" sketch:type="MSPage">
        <g id="icons" sketch:type="MSLayerGroup" transform="translate(-79.000000, -1.000000)">
            <g id="map2" transform="translate(78.000000, 0.000000)" sketch:type="MSShapeGroup">
                <path d="M1.45151515,1.51515152 L13.5287879,6.06060606 L25.7030303,1.51515152 L37.8166667,6.06060606 L49.9378788,1.51515152 L49.9378788,45.4545455 L37.7863636,50 L25.6575758,45.4545455 L13.55,50 L1.4530303,45.4545455 L1.4530303,1.51515152 L1.45151515,1.51515152 Z" id="Shape" fill="#26A6D1"></path>
                <path d="M13.5727273,49.980303 L25.6575758,45.4439394 L25.6939394,45.4575758 L25.6939394,1.50757576 L13.5727273,6.03333333 L13.5727273,49.980303 Z" id="Shape" fill="#2295BC"></path>
                <path d="M37.8166667,6.05 L37.8166667,49.9772727 L49.9378788,45.4439394 L49.9378788,1.50454545 L37.8166667,6.05 Z" id="Shape" fill="#2295BC"></path>
                <path d="M37.8166667,6.05 L25.7030303,1.50454545 L21.0409091,3.24393939 C13.1939394,12.280303 16.1242424,19.8757576 26.5257576,29.2984848 C35.3,37.2454545 44.369697,41.8969697 49.9363636,37.8666667 L49.9363636,1.5030303 L37.8166667,6.05 L37.8166667,6.05 Z" id="Shape" fill="#EFC75E"></path>
                <path d="M49.9378788,1.50454545 L37.8166667,6.05 L25.7030303,1.50454545 L25.6863636,1.51060606 C14.8878788,10.6636364 20.1787879,15.9 29.6136364,24.5848485 C37.2333333,31.6015152 43.3333333,35.6757576 49.9378788,31.8090909 C49.869697,28.7848485 49.9378788,1.52121212 49.9378788,1.50454545 L49.9378788,1.50454545 Z" id="Shape" fill="#3DB39E"></path>
                <path d="M37.8166667,6.05 L37.8166667,37.3454545 C42.519697,39.6469697 46.7893939,40.1484848 49.9378788,37.8681818 L49.9378788,1.50454545 L37.8166667,6.05 L37.8166667,6.05 Z" id="Shape" fill="#D7B354"></path>
                <path d="M25.6939394,1.50757576 L23.1424242,2.46060606 L21.0409091,3.24545455 C13.4121212,12.0287879 15.9909091,19.4560606 25.6939394,28.5181818 L25.6939394,1.50757576 L25.6939394,1.50757576 Z" id="Shape" fill="#D7B354"></path>
                <path d="M49.9378788,1.50454545 L37.8166667,6.05 L37.8166667,31.0666667 C41.9818182,33.5515152 45.8651515,34.1924242 49.9378788,31.8075758 C49.869697,28.7848485 49.9378788,1.52121212 49.9378788,1.50454545 L49.9378788,1.50454545 Z" id="Shape" fill="#37A18E"></path>
                <path d="M25.6939394,1.50757576 L25.6893939,1.50909091 L25.6863636,1.51060606 C16.5045455,9.29242424 18.9575758,14.2439394 25.6939394,20.8893939 L25.6939394,1.50757576 L25.6939394,1.50757576 Z" id="Shape" fill="#37A18E"></path>
            </g>
        </g>
    </g>
</svg>