<?xml version="1.0" encoding="UTF-8" standalone="no"?>
<svg width="50px" height="58px" viewBox="0 0 50 58" version="1.1" xmlns="http://www.w3.org/2000/svg" xmlns:xlink="http://www.w3.org/1999/xlink" xmlns:sketch="http://www.bohemiancoding.com/sketch/ns">
    <!-- Generator: Sketch 3.2.1 (9971) - http://www.bohemiancoding.com/sketch -->
    <title>mcfly</title>
    <desc>Created with Sketch.</desc>
    <defs></defs>
    <g id="Page-1" stroke="none" stroke-width="1" fill="none" fill-rule="evenodd" sketch:type="MSPage">
        <g id="icons" sketch:type="MSLayerGroup" transform="translate(-4.000000, -109.000000)">
            <g id="mcfly" transform="translate(4.000000, 109.000000)" sketch:type="MSShapeGroup">
                <path d="M48.2142857,25.375 C46.2428571,25.375 44.6428571,23.751 44.6428571,21.75 L44.6428571,5.4375 C44.6428571,4.4351875 43.8446429,3.625 42.8571429,3.625 L7.14285714,3.625 C6.15535714,3.625 5.35714286,4.4351875 5.35714286,5.4375 L5.35714286,21.75 C5.35714286,23.751 3.75714286,25.375 1.78571429,25.375 L0,25.375 L0,54.375 C0,56.3778125 1.6,58 3.57142857,58 L46.4285714,58 C48.4,58 50,56.3778125 50,54.375 L50,25.375 L48.2142857,25.375 L48.2142857,25.375 Z" id="Shape" fill="#E2574C"></path>
                <g id="Group" transform="translate(0.000000, 43.500000)" fill="#BB493F">
                    <path d="M10.7142857,0 L0,10.875 C0,12.8778125 1.6,14.5 3.57142857,14.5 L17.8571429,14.5 L17.8571429,0 L10.7142857,0 L10.7142857,0 Z M32.1428571,0 L32.1428571,14.5 L46.4285714,14.5 C48.4,14.5 50,12.8778125 50,10.875 L39.2857143,0 L32.1428571,0 L32.1428571,0 Z" id="Shape"></path>
                </g>
                <path d="M44.6428571,10.875 L5.35714286,10.875 L5.35714286,12.6875 L44.6428571,12.6875 L44.6428571,10.875 L44.6428571,10.875 Z M44.6428571,19.9375 L5.35714286,19.9375 L5.35714286,21.75 L44.6428571,21.75 L44.6428571,19.9375 L44.6428571,19.9375 Z M0,29 L0,30.8125 L50,30.8125 L50,29 L0,29 L0,29 Z M0,39.875 L50,39.875 L50,38.0625 L0,38.0625 L0,39.875 L0,39.875 Z M0,48.9375 L50,48.9375 L50,47.125 L0,47.125 L0,48.9375 L0,48.9375 Z" id="Shape" fill="#C5493E"></path>
                <path d="M25.1517857,19.9375 L26.7875,19.9375 L26.7875,58 L25.1517857,58 L25.1517857,19.9375 L25.1517857,19.9375 Z" id="Shape" fill="#DB5145"></path>
                <path d="M16.0714286,0 L33.9285714,0 C35.9,0 37.5,1.6221875 37.5,3.625 L37.5,9.0625 C37.5,11.0653125 28.7571429,19.9375 26.7857143,19.9375 L23.2142857,19.9375 C21.2428571,19.9375 12.5,11.0653125 12.5,9.0625 L12.5,3.625 C12.5,1.6221875 14.1,0 16.0714286,0 L16.0714286,0 Z" id="Shape" fill="#B5463D"></path>
                <path d="M20.4089286,3.625 L29.5946429,3.625 C31.0035714,3.625 32.1464286,4.5983125 32.1464286,5.7981875 L32.1464286,7.25 C32.1464286,8.449875 27.1875,14.5 25.7785714,14.5 L24.2303571,14.5 C22.8232143,14.5 17.8625,8.449875 17.8625,7.25 L17.8625,5.8 C17.8571429,4.600125 19,3.625 20.4089286,3.625 L20.4089286,3.625 Z" id="Shape" fill="#88342E"></path>
                <g id="Group" transform="translate(5.357143, 47.125000)" fill="#AF4437">
                    <path d="M12.5,1.8125 L12.5,0 L1.78571429,0 L0,1.8125 L12.5,1.8125 Z" id="Shape"></path>
                    <path d="M37.5,0 L26.7857143,0 L26.7857143,1.8125 L39.2857143,1.8125 L37.5,0 Z" id="Shape"></path>
                </g>
                <path d="M23.2142857,19.9375 L25.15,19.9375 L25.15,58 L23.2142857,58 L23.2142857,19.9375 L23.2142857,19.9375 Z" id="Shape" fill="#A14034"></path>
                <g id="Group" transform="translate(25.000000, 19.937500)" fill="#C4463A">
                    <rect id="Rectangle-path" x="0.151785714" y="27.1875" width="1.63571429" height="1.8125"></rect>
                    <rect id="Rectangle-path" x="0.151785714" y="18.125" width="1.63571429" height="1.8125"></rect>
                    <rect id="Rectangle-path" x="0.151785714" y="9.0625" width="1.63571429" height="1.8125"></rect>
                    <rect id="Rectangle-path" x="0.151785714" y="0" width="1.63571429" height="1.8125"></rect>
                </g>
                <g id="Group" transform="translate(0.000000, 45.312500)" fill="#E2574C">
                    <path d="M49.6785714,10.54875 L39.2857143,0 L33.9285714,0 L33.9285714,12.6875 L46.4285714,12.6875 C47.8767857,12.6875 49.1196429,11.8084375 49.6785714,10.54875 L49.6785714,10.54875 Z M10.7142857,0 L0.321428571,10.54875 C0.880357143,11.8084375 2.12321429,12.6875 3.57142857,12.6875 L16.0714286,12.6875 L16.0714286,0 L10.7142857,0 L10.7142857,0 Z" id="Shape"></path>
                </g>
            </g>
        </g>
    </g>
</svg>